<svg width="25" height="25" viewBox="0 0 25 25" fill="none" xmlns="http://www.w3.org/2000/svg">
<mask id="mask0_98_37" style="mask-type:alpha" maskUnits="userSpaceOnUse" x="0" y="0" width="25" height="25">
<rect x="0.576172" y="0.2854" width="24" height="24" fill="#C4C4C4"/>
</mask>
<g mask="url(#mask0_98_37)">
<path d="M12.5762 21.2854L11.1262 19.9854C8.50951 17.6521 6.43017 15.6227 4.88817 13.8974C3.34684 12.1727 2.57617 10.3521 2.57617 8.4354C2.57617 6.86873 3.10117 5.5604 4.15117 4.5104C5.20117 3.4604 6.50951 2.9354 8.07617 2.9354C8.95951 2.9354 9.79284 3.12274 10.5762 3.4974C11.3595 3.87274 12.0262 4.3854 12.5762 5.0354C13.1262 4.3854 13.7928 3.87274 14.5762 3.4974C15.3595 3.12274 16.1928 2.9354 17.0762 2.9354C18.6428 2.9354 19.9512 3.4604 21.0012 4.5104C22.0512 5.5604 22.5762 6.86873 22.5762 8.4354C22.5762 10.3521 21.8055 12.1727 20.2642 13.8974C18.7222 15.6227 16.6428 17.6521 14.0262 19.9854L12.5762 21.2854ZM12.5762 18.5854C14.9595 16.4187 16.8888 14.5521 18.3642 12.9854C19.8388 11.4187 20.5762 9.90207 20.5762 8.4354C20.5762 7.4354 20.2428 6.60207 19.5762 5.9354C18.9095 5.26874 18.0762 4.9354 17.0762 4.9354C16.2928 4.9354 15.5678 5.15607 14.9012 5.5974C14.2345 6.0394 13.7762 6.60207 13.5262 7.2854H11.6262C11.3762 6.60207 10.9178 6.0394 10.2512 5.5974C9.58451 5.15607 8.85951 4.9354 8.07617 4.9354C7.07617 4.9354 6.24284 5.26874 5.57617 5.9354C4.90951 6.60207 4.57617 7.4354 4.57617 8.4354C4.57617 9.90207 5.31384 11.4187 6.78917 12.9854C8.26384 14.5521 10.1928 16.4187 12.5762 18.5854Z" fill="#1C1B1F"/>
</g>
</svg>
