<svg width="25" height="25" viewBox="0 0 25 25" fill="none" xmlns="http://www.w3.org/2000/svg">
<mask id="mask0_98_13" style="mask-type:alpha" maskUnits="userSpaceOnUse" x="0" y="0" width="25" height="25">
<rect x="0.639648" y="0.284706" width="24" height="24" fill="#C4C4C4"/>
</mask>
<g mask="url(#mask0_98_13)">
<path d="M12.6396 12.2847C11.5396 12.2847 10.598 11.893 9.81465 11.1097C9.03132 10.3264 8.63965 9.38471 8.63965 8.28471C8.63965 7.18471 9.03132 6.24304 9.81465 5.45971C10.598 4.67637 11.5396 4.28471 12.6396 4.28471C13.7396 4.28471 14.6813 4.67637 15.4646 5.45971C16.248 6.24304 16.6396 7.18471 16.6396 8.28471C16.6396 9.38471 16.248 10.3264 15.4646 11.1097C14.6813 11.893 13.7396 12.2847 12.6396 12.2847ZM4.63965 20.2847V17.4847C4.63965 16.918 4.78565 16.397 5.07765 15.9217C5.36898 15.447 5.75632 15.0847 6.23965 14.8347C7.27298 14.318 8.32298 13.9304 9.38965 13.6717C10.4563 13.4137 11.5396 13.2847 12.6396 13.2847C13.7396 13.2847 14.823 13.4137 15.8896 13.6717C16.9563 13.9304 18.0063 14.318 19.0396 14.8347C19.523 15.0847 19.9103 15.447 20.2016 15.9217C20.4936 16.397 20.6396 16.918 20.6396 17.4847V20.2847H4.63965ZM6.63965 18.2847H18.6396V17.4847C18.6396 17.3014 18.594 17.1347 18.5026 16.9847C18.4106 16.8347 18.2896 16.718 18.1396 16.6347C17.2396 16.1847 16.3313 15.847 15.4146 15.6217C14.498 15.397 13.573 15.2847 12.6396 15.2847C11.7063 15.2847 10.7813 15.397 9.86465 15.6217C8.94798 15.847 8.03965 16.1847 7.13965 16.6347C6.98965 16.718 6.86898 16.8347 6.77765 16.9847C6.68565 17.1347 6.63965 17.3014 6.63965 17.4847V18.2847ZM12.6396 10.2847C13.1896 10.2847 13.6606 10.0887 14.0526 9.69671C14.444 9.30537 14.6396 8.83471 14.6396 8.28471C14.6396 7.73471 14.444 7.26404 14.0526 6.87271C13.6606 6.48071 13.1896 6.28471 12.6396 6.28471C12.0896 6.28471 11.619 6.48071 11.2276 6.87271C10.8356 7.26404 10.6396 7.73471 10.6396 8.28471C10.6396 8.83471 10.8356 9.30537 11.2276 9.69671C11.619 10.0887 12.0896 10.2847 12.6396 10.2847Z" fill="#1C1B1F"/>
</g>
</svg>
