<svg width="25" height="25" viewBox="0 0 25 25" fill="none" xmlns="http://www.w3.org/2000/svg">
<mask id="mask0_98_25" style="mask-type:alpha" maskUnits="userSpaceOnUse" x="0" y="0" width="25" height="25">
<rect x="0.957031" y="0.170859" width="24" height="24" fill="#C4C4C4"/>
</mask>
<g mask="url(#mask0_98_25)">
<path d="M5.95742 21.1709C5.67409 21.1709 5.41575 21.0835 5.18242 20.9089C4.94909 20.7335 4.79075 20.5042 4.70742 20.2209L1.90742 10.1209C1.82409 9.88753 1.86142 9.67086 2.01942 9.47086C2.17809 9.27086 2.39075 9.17086 2.65742 9.17086H7.70742L12.1074 2.62086C12.1908 2.48753 12.3074 2.37919 12.4574 2.29586C12.6074 2.21253 12.7658 2.17086 12.9324 2.17086C13.0991 2.17086 13.2574 2.21253 13.4074 2.29586C13.5574 2.37919 13.6741 2.48753 13.7574 2.62086L18.1574 9.17086H23.2574C23.5241 9.17086 23.7368 9.27086 23.8954 9.47086C24.0534 9.67086 24.0908 9.88753 24.0074 10.1209L21.2074 20.2209C21.1241 20.5042 20.9658 20.7335 20.7324 20.9089C20.4991 21.0835 20.2408 21.1709 19.9574 21.1709H5.95742ZM10.1324 9.17086H15.7574L12.9324 4.97086L10.1324 9.17086ZM12.9574 17.1709C13.5074 17.1709 13.9784 16.9752 14.3704 16.5839C14.7618 16.1919 14.9574 15.7209 14.9574 15.1709C14.9574 14.6209 14.7618 14.1499 14.3704 13.7579C13.9784 13.3665 13.5074 13.1709 12.9574 13.1709C12.4074 13.1709 11.9368 13.3665 11.5454 13.7579C11.1534 14.1499 10.9574 14.6209 10.9574 15.1709C10.9574 15.7209 11.1534 16.1919 11.5454 16.5839C11.9368 16.9752 12.4074 17.1709 12.9574 17.1709ZM6.45742 19.1709H19.4574L21.6574 11.1709H4.25742L6.45742 19.1709Z" fill="#1C1B1F"/>
</g>
</svg>
