<svg width="20" height="20" viewBox="0 0 20 20" fill="none" xmlns="http://www.w3.org/2000/svg">
<path d="M12.6562 8.42448C12.6562 7.48698 12.424 6.75347 11.9596 6.22396C11.4952 5.69444 10.855 5.42969 10.0391 5.42969C9.49219 5.42969 8.95399 5.56207 8.42448 5.82682C7.89497 6.09158 7.41753 6.45833 6.99219 6.92708C6.56684 7.39583 6.22179 7.99045 5.95703 8.71094C5.69227 9.43142 5.5599 10.2127 5.5599 11.0547C5.5599 12.0269 5.7921 12.7778 6.25651 13.3073C6.72092 13.8368 7.37413 14.1016 8.21615 14.1016C9.04948 14.1016 9.81337 13.8129 10.5078 13.2357C11.2023 12.6584 11.7339 11.9379 12.1029 11.0742C12.4718 10.2105 12.6562 9.32726 12.6562 8.42448ZM20 10C20 10.9635 19.8394 11.8186 19.5182 12.5651C19.197 13.3116 18.7695 13.8976 18.2357 14.3229C17.7018 14.7483 17.1311 15.0716 16.5234 15.293C15.9158 15.5143 15.2865 15.6337 14.6354 15.651C14.5833 15.651 14.5161 15.6532 14.4336 15.6576C14.3511 15.6619 14.2795 15.6641 14.2187 15.6641C13.3941 15.6641 12.7778 15.434 12.3698 14.974C12.1267 14.6875 11.9835 14.3273 11.9401 13.8932C11.4887 14.4661 10.918 14.9436 10.2279 15.3255C9.53776 15.7075 8.78472 15.8984 7.96875 15.8984C6.57118 15.8984 5.48828 15.4839 4.72005 14.6549C3.95182 13.826 3.56771 12.6562 3.56771 11.1458C3.56771 9.78299 3.85417 8.52431 4.42708 7.36979C5 6.21528 5.77691 5.30165 6.75781 4.62891C7.73872 3.95616 8.80642 3.61979 9.96094 3.61979C10.7161 3.61979 11.3889 3.77387 11.9792 4.08203C12.5694 4.39019 13.0295 4.82205 13.3594 5.3776L13.3854 5.13021L13.5286 4.40104C13.5373 4.34896 13.5612 4.29687 13.6003 4.24479C13.6393 4.19271 13.6806 4.16667 13.724 4.16667H15.2604C15.3038 4.16667 15.3602 4.21441 15.4297 4.3099C15.4731 4.3533 15.4861 4.42274 15.4687 4.51823L13.9062 12.513C13.8628 12.7214 13.8411 12.9297 13.8411 13.138C13.8411 13.4766 13.8954 13.7023 14.0039 13.8151C14.1124 13.928 14.3056 13.9844 14.5833 13.9844C14.8264 13.9757 15.0738 13.9518 15.3255 13.9128C15.5773 13.8737 15.8941 13.7695 16.276 13.6003C16.658 13.431 16.9922 13.214 17.2786 12.9492C17.5651 12.6845 17.8125 12.296 18.0208 11.7839C18.2292 11.2717 18.3333 10.6771 18.3333 10C18.3333 7.46528 17.5781 5.44271 16.0677 3.93229C14.5573 2.42187 12.5347 1.66667 10 1.66667C8.87153 1.66667 7.79297 1.88802 6.76432 2.33073C5.73568 2.77344 4.85026 3.36589 4.10807 4.10807C3.36589 4.85026 2.77344 5.73568 2.33073 6.76432C1.88802 7.79297 1.66667 8.87153 1.66667 10C1.66667 11.1285 1.88802 12.207 2.33073 13.2357C2.77344 14.2643 3.36589 15.1497 4.10807 15.8919C4.85026 16.6341 5.73568 17.2266 6.76432 17.6693C7.79297 18.112 8.87153 18.3333 10 18.3333C11.9792 18.3333 13.737 17.7083 15.2734 16.4583C15.3689 16.3802 15.4731 16.3455 15.5859 16.3542C15.6988 16.3628 15.7899 16.4149 15.8594 16.5104L16.3932 17.1484C16.4627 17.2526 16.4931 17.3568 16.4844 17.4609C16.467 17.5738 16.4149 17.6693 16.3281 17.7474C15.4427 18.4679 14.4553 19.0234 13.3659 19.4141C12.2765 19.8047 11.1545 20 10 20C8.64583 20 7.35243 19.7352 6.11979 19.2057C4.88715 18.6762 3.82378 17.9644 2.92969 17.0703C2.03559 16.1762 1.32378 15.1128 0.794271 13.8802C0.264757 12.6476 0 11.3542 0 10C0 8.64583 0.264757 7.35243 0.794271 6.11979C1.32378 4.88715 2.03559 3.82378 2.92969 2.92969C3.82378 2.03559 4.88715 1.32378 6.11979 0.794271C7.35243 0.264757 8.64583 0 10 0C12.9861 0 15.3993 0.920139 17.2396 2.76042C19.0799 4.60069 20 7.01389 20 10Z" fill="white"/>
</svg>
