<svg width="18" height="20" viewBox="0 0 18 20" fill="none" xmlns="http://www.w3.org/2000/svg">
<g clip-path="url(#clip0_134_8)">
<path d="M10.8404 13.8839V16.2388C10.8404 16.7374 10.6953 16.9866 10.4051 16.9866C10.234 16.9866 10.0666 16.9048 9.9029 16.7411V13.3817C10.0666 13.218 10.234 13.1362 10.4051 13.1362C10.6953 13.1362 10.8404 13.3854 10.8404 13.8839ZM14.6127 13.8951V14.4085H13.6083V13.8951C13.6083 13.3891 13.7757 13.1362 14.1105 13.1362C14.4453 13.1362 14.6127 13.3891 14.6127 13.8951ZM3.83147 11.4621H5.02567V10.4129H1.54353V11.4621H2.7154V17.8125H3.83147V11.4621ZM7.04576 17.8125H8.03906V12.2991H7.04576V16.5179C6.82254 16.8304 6.61049 16.9866 6.4096 16.9866C6.27567 16.9866 6.19754 16.9085 6.17522 16.7522C6.16778 16.7299 6.16406 16.5997 6.16406 16.3616V12.2991H5.17076V16.6629C5.17076 17.0275 5.20052 17.2991 5.26004 17.4777C5.34933 17.753 5.5651 17.8906 5.90737 17.8906C6.26451 17.8906 6.64397 17.6637 7.04576 17.2098V17.8125ZM11.8337 16.1607V13.9621C11.8337 13.4189 11.8002 13.0506 11.7333 12.8571C11.6068 12.4405 11.3426 12.2321 10.9408 12.2321C10.5688 12.2321 10.2228 12.433 9.9029 12.8348V10.4129H8.9096V17.8125H9.9029V17.2768C10.2377 17.686 10.5837 17.8906 10.9408 17.8906C11.3426 17.8906 11.6068 17.686 11.7333 17.2768C11.8002 17.0759 11.8337 16.7039 11.8337 16.1607ZM15.606 16.0491V15.904H14.5904C14.5904 16.2835 14.583 16.5104 14.5681 16.5848C14.516 16.8527 14.3672 16.9866 14.1217 16.9866C13.7794 16.9866 13.6083 16.7299 13.6083 16.2165V15.2455H15.606V14.096C15.606 13.5082 15.5056 13.0766 15.3047 12.8013C15.0145 12.4219 14.6202 12.2321 14.1217 12.2321C13.6157 12.2321 13.2176 12.4219 12.9275 12.8013C12.7191 13.0766 12.615 13.5082 12.615 14.096V16.0268C12.615 16.6146 12.7228 17.0461 12.9386 17.3214C13.2288 17.7009 13.6306 17.8906 14.144 17.8906C14.6797 17.8906 15.0815 17.6935 15.3493 17.2991C15.4833 17.0982 15.5614 16.8973 15.5837 16.6964C15.5986 16.6295 15.606 16.4137 15.606 16.0491ZM8.82031 5.85938V3.51563C8.82031 3.00223 8.66034 2.74554 8.3404 2.74554C8.02046 2.74554 7.86049 3.00223 7.86049 3.51563V5.85938C7.86049 6.38021 8.02046 6.64063 8.3404 6.64063C8.66034 6.64063 8.82031 6.38021 8.82031 5.85938ZM16.8449 14.2411C16.8449 15.9821 16.7481 17.2842 16.5547 18.1473C16.4505 18.5863 16.2347 18.9546 15.9074 19.2522C15.58 19.5499 15.2005 19.721 14.769 19.7656C13.3999 19.9219 11.3352 20 8.57478 20C5.81436 20 3.74963 19.9219 2.38058 19.7656C1.94903 19.721 1.56771 19.5499 1.23661 19.2522C0.905506 18.9546 0.691592 18.5863 0.594866 18.1473C0.401414 17.314 0.304688 16.0119 0.304688 14.2411C0.304688 12.5 0.401414 11.1979 0.594866 10.3348C0.699033 9.89583 0.914807 9.52753 1.24219 9.22991C1.56957 8.93229 1.95275 8.75744 2.39174 8.70536C3.75335 8.55655 5.81436 8.48214 8.57478 8.48214C11.3352 8.48214 13.3999 8.55655 14.769 8.70536C15.2005 8.75744 15.5818 8.93229 15.9129 9.22991C16.244 9.52753 16.458 9.89583 16.5547 10.3348C16.7481 11.1682 16.8449 12.4702 16.8449 14.2411ZM5.70647 0H6.84487L5.49442 4.45313V7.47768H4.37835V4.45313C4.27418 3.90253 4.04725 3.11384 3.69754 2.08705C3.42225 1.32068 3.18043 0.625 2.9721 0H4.15513L4.94754 2.93527L5.70647 0ZM9.83594 3.71652V5.66964C9.83594 6.27232 9.73177 6.71131 9.52344 6.98661C9.2407 7.36607 8.84635 7.5558 8.3404 7.5558C7.84189 7.5558 7.45127 7.36607 7.16853 6.98661C6.96019 6.70387 6.85603 6.26488 6.85603 5.66964V3.71652C6.85603 3.12128 6.96019 2.68601 7.16853 2.41071C7.45127 2.03125 7.84189 1.84152 8.3404 1.84152C8.84635 1.84152 9.2407 2.03125 9.52344 2.41071C9.73177 2.68601 9.83594 3.12128 9.83594 3.71652ZM13.5748 1.90848V7.47768H12.5592V6.86384C12.1648 7.32515 11.7816 7.5558 11.4096 7.5558C11.0673 7.5558 10.8478 7.41815 10.7511 7.14286C10.6916 6.96429 10.6618 6.68527 10.6618 6.3058V1.90848H11.6775V6.00446C11.6775 6.25 11.6812 6.38021 11.6886 6.39509C11.7109 6.55878 11.7891 6.64063 11.923 6.64063C12.1239 6.64063 12.3359 6.48065 12.5592 6.16071V1.90848H13.5748Z" fill="white"/>
</g>
<defs>
<clipPath id="clip0_134_8">
<rect width="17.15" height="20" fill="white"/>
</clipPath>
</defs>
</svg>
