<svg width="10" height="20" viewBox="0 0 10 20" fill="none" xmlns="http://www.w3.org/2000/svg">
<g clip-path="url(#clip0_136_14)">
<path d="M10.3851 0.144071V3.3174H8.49764C8.24745 3.28543 7.99331 3.30765 7.75247 3.38256C7.51163 3.45747 7.28972 3.58332 7.10181 3.75157L7.10348 3.7499C6.83335 4.12885 6.70585 4.59106 6.74348 5.0549V5.04824V7.3199H10.2676L9.80098 10.8782H6.74848V19.9999H3.06764V10.8774H0.000976562V7.3199H3.06764V4.69907C3.02778 4.06607 3.1183 3.43162 3.3336 2.83503C3.5489 2.23844 3.8844 1.6924 4.31931 1.23074L4.31681 1.23324C4.76071 0.812617 5.28543 0.486557 5.85914 0.274836C6.43285 0.0631149 7.04359 -0.0298534 7.65431 0.00157065H7.64348C8.59204 -0.0140765 9.54052 0.0374412 10.4818 0.155737L10.3843 0.145737L10.3851 0.144071Z" fill="white"/>
</g>
<defs>
<clipPath id="clip0_136_14">
<rect width="10" height="20" fill="white"/>
</clipPath>
</defs>
</svg>
