<?xml version="1.0" encoding="UTF-8"?><svg id="a" xmlns="http://www.w3.org/2000/svg" xmlns:xlink="http://www.w3.org/1999/xlink" viewBox="0 0 2020 502"><defs><style>.d{fill:none;}.e{letter-spacing:-.02em;}.f{fill:#333;}.g{letter-spacing:-.07em;}.h{fill:#fff;font-family:Helvetica, Helvetica;font-size:20px;}.i{clip-path:url(#c);}.j{clip-path:url(#b);}</style><clipPath id="b"><path class="d" d="M10,0H2010c5.52,0,10,4.48,10,10V203.85l-281.44-102.69c-2.86-1.04-6.03-.73-8.63,.85l-115.99,70.67c-2.33,1.42-5.13,1.82-7.77,1.13l-271.41-71.99c-3.75-.99-7.74,.27-10.23,3.24l-169.56,202.31c-2.77,3.31-7.36,4.46-11.37,2.86l-281.28-112.22c-2.44-.98-5.17-.95-7.6,.08l-181.57,76.74c-3.99,1.69-8.62,.61-11.45-2.67l-120.82-139.62c-2.65-3.06-6.88-4.22-10.71-2.95L166.19,250.49c-1.02,.34-2.08,.51-3.15,.51H0V10C0,4.48,4.48,0,10,0Z"/></clipPath><clipPath id="c"><path class="d" d="M0,255.32l158.47-.47c5.31-.02,10.58-.87,15.61-2.54l360.99-119.33,120.43,139.05c5.66,6.54,14.89,8.7,22.87,5.34l176.49-74.18c2.41-1.01,5.13-1.04,7.56-.08l282.85,112.21c4.01,1.59,8.6,.43,11.36-2.89l169.53-203.07c2.49-2.98,6.49-4.25,10.24-3.26l270.48,71.79c2.63,.7,5.42,.3,7.74-1.11l115.92-70.18c2.6-1.57,5.77-1.88,8.62-.83l280.82,103V502H0V255.32Z"/></clipPath></defs><path d="M0,0H2020V203.85l-285.96-104.33-120.1,73.18c-2.33,1.42-5.13,1.82-7.77,1.13l-277.56-73.62-173.65,207.18c-2.77,3.31-7.36,4.46-11.37,2.86l-281.28-112.22c-2.44-.98-5.17-.95-7.6,.08l-181.57,76.74c-3.99,1.69-8.62,.61-11.45-2.67l-120.82-139.62c-2.65-3.06-6.88-4.22-10.71-2.95L167.72,249.98c-2.03,.68-4.16,1.02-6.3,1.02H0V0Z"/><g class="j"><rect class="f" x="714.24" width="1305.76" height="502"/></g><path d="M0,255.32l163.29-.48c2.11,0,4.21-.35,6.22-1.01l359.23-118.75c3.83-1.27,8.05-.1,10.7,2.95l120.82,139.5c2.83,3.27,7.45,4.35,11.43,2.67l183.17-76.99c2.41-1.01,5.13-1.04,7.56-.08l289.58,114.88,174.17-208.62c2.49-2.98,6.49-4.25,10.24-3.26l274.59,72.88,119.56-72.38c2.6-1.57,5.77-1.88,8.62-.83l280.82,103V502H0V255.32Z"/><g class="i"><rect class="f" x="714.24" width="1305.76" height="502"/></g><text class="h" transform="translate(79.67 303.07)"><tspan x="0" y="0">THING WE H</tspan><tspan class="g" x="119.99" y="0">A</tspan><tspan x="131.86" y="0">VE DONE</tspan></text><text class="h" transform="translate(384.51 104.14)"><tspan x="0" y="0">THING WE H</tspan><tspan class="g" x="119.99" y="0">A</tspan><tspan x="131.86" y="0">VE DONE</tspan></text><text class="h" transform="translate(460.72 329.3)"><tspan x="0" y="0">THING WE H</tspan><tspan class="g" x="119.99" y="0">A</tspan><tspan x="131.86" y="0">VE DONE</tspan></text><text class="h" transform="translate(742.84 175.73)"><tspan x="0" y="0">THING</tspan><tspan class="e" x="62.22" y="0" xml:space="preserve"> T</tspan><tspan x="79.29" y="0">O DO</tspan></text><text class="h" transform="translate(1046.81 363.43)"><tspan x="0" y="0">THING</tspan><tspan class="e" x="62.22" y="0" xml:space="preserve"> T</tspan><tspan x="79.29" y="0">O DO</tspan></text><text class="h" transform="translate(1171.95 92.68)"><tspan x="0" y="0">THING</tspan><tspan class="e" x="62.22" y="0" xml:space="preserve"> T</tspan><tspan x="79.29" y="0">O DO</tspan></text><text class="h" transform="translate(1535.97 222.37)"><tspan x="0" y="0">THING</tspan><tspan class="e" x="62.22" y="0" xml:space="preserve"> T</tspan><tspan x="79.29" y="0">O DO</tspan></text><text class="h" transform="translate(1652.01 76.76)"><tspan x="0" y="0">THING</tspan><tspan class="e" x="62.22" y="0" xml:space="preserve"> T</tspan><tspan x="79.29" y="0">O DO</tspan></text></svg>