<?xml version="1.0" encoding="UTF-8"?><svg id="a" xmlns="http://www.w3.org/2000/svg" xmlns:xlink="http://www.w3.org/1999/xlink" viewBox="0 0 2020 502"><defs><style>.d{fill:none;}.e{letter-spacing:-.02em;}.f{fill:#333;}.g{letter-spacing:-.07em;}.h{fill:#fff;font-family:Helvetica, Helvetica;font-size:20px;}.i{clip-path:url(#c);}.j{clip-path:url(#b);}</style><clipPath id="b"><polygon class="d" points="0 0 2020 0 2020 203.85 1734.04 99.51 1610.3 174.91 1328.62 100.2 1150.32 312.92 858.5 196.5 666.45 277.67 536.5 127.5 164.65 251 0 251 0 0"/></clipPath><clipPath id="c"><polygon class="d" points="0 255.32 166.48 254.82 535.07 132.98 665 283 858.62 201.61 1152 318 1330.26 104.48 1611 179 1734.67 104.14 2020 208.79 2020 502 0 502 0 255.32"/></clipPath></defs><polygon points="0 0 2020 0 2020 203.85 1734.04 99.51 1610.3 174.91 1328.62 100.2 1150.32 312.92 858.5 196.5 666.45 277.67 536.5 127.5 164.65 251 0 251 0 0"/><g class="j"><rect class="f" x="714.24" width="1305.76" height="502"/></g><polygon points="0 255.32 166.48 254.82 535.07 132.98 665 283 858.62 201.61 1152 318 1330.26 104.48 1611 179 1734.67 104.14 2020 208.79 2020 502 0 502 0 255.32"/><g class="i"><rect class="f" x="714.24" width="1305.76" height="502"/></g><text class="h" transform="translate(79.67 303.07)"><tspan x="0" y="0">THING WE H</tspan><tspan class="g" x="119.99" y="0">A</tspan><tspan x="131.86" y="0">VE DONE</tspan></text><text class="h" transform="translate(384.51 104.14)"><tspan x="0" y="0">THING WE H</tspan><tspan class="g" x="119.99" y="0">A</tspan><tspan x="131.86" y="0">VE DONE</tspan></text><text class="h" transform="translate(460.72 329.3)"><tspan x="0" y="0">THING WE H</tspan><tspan class="g" x="119.99" y="0">A</tspan><tspan x="131.86" y="0">VE DONE</tspan></text><text class="h" transform="translate(742.84 175.73)"><tspan x="0" y="0">THING</tspan><tspan class="e" x="62.22" y="0" xml:space="preserve"> T</tspan><tspan x="79.29" y="0">O DO</tspan></text><text class="h" transform="translate(1046.81 363.43)"><tspan x="0" y="0">THING</tspan><tspan class="e" x="62.22" y="0" xml:space="preserve"> T</tspan><tspan x="79.29" y="0">O DO</tspan></text><text class="h" transform="translate(1171.95 92.68)"><tspan x="0" y="0">THING</tspan><tspan class="e" x="62.22" y="0" xml:space="preserve"> T</tspan><tspan x="79.29" y="0">O DO</tspan></text><text class="h" transform="translate(1535.97 222.37)"><tspan x="0" y="0">THING</tspan><tspan class="e" x="62.22" y="0" xml:space="preserve"> T</tspan><tspan x="79.29" y="0">O DO</tspan></text><text class="h" transform="translate(1652.01 76.76)"><tspan x="0" y="0">THING</tspan><tspan class="e" x="62.22" y="0" xml:space="preserve"> T</tspan><tspan x="79.29" y="0">O DO</tspan></text></svg>